<svg version="1" id="Layer_8" xmlns="http://www.w3.org/2000/svg" x="0" y="0" viewBox="0 0 288 45" xml:space="preserve"><path fill="#444545" d="M25.114 22.512a2.63 2.63 0 1 1-5.262.002 2.63 2.63 0 0 1 5.262-.002z"/><path fill="#0E8ACB" d="M40.555 36.336H22.658c-7.7 0-13.938-6.248-13.938-13.937 0-7.7 6.236-13.94 13.938-13.94 7.69 0 13.937 6.286 13.937 13.985 0 4.032-1.72 7.663-4.464 10.26h9.894c1.973-2.798 2.94-6.12 2.94-10.15 0-12.41-10.06-22.502-22.472-22.502C10.07.053 0 10.113 0 22.523 0 34.935 10.07 45 22.493 45l26.788-.005-8.725-8.66zM66.56 10.836c-3.184 0-6.566 1.18-8.55 3.547-1.988 2.357-2.99 5.16-2.99 8.417 0 3.455.983 6.18 2.938 8.576 1.954 2.39 4.62 3.59 8.005 3.59a8.64 8.64 0 0 0 4.372-1.17c.22-.124.413-.268.623-.412v-3.63c-1.17.868-2.606 1.304-4.313 1.304-2.213 0-3.97-.806-5.276-2.44-1.302-1.625-1.943-3.39-1.943-5.672 0-2.245.652-4.178 1.976-5.78 1.312-1.614 3.06-2.42 5.242-2.42 2.285 0 7.134 1.67 7.134 10.722V45h4.447V24.483s.3-13.648-11.666-13.648zM81.21 10.818h4.478v12.998c0 2.148.394 3.857 1.17 5.118.774 1.26 2.18 1.89 4.208 1.89 2.015 0 3.422-.63 4.198-1.89.775-1.26 1.168-2.97 1.168-5.118V10.818h4.478V24.31c0 3.32-.817 5.926-2.44 7.828-1.626 1.912-4.095 2.865-7.404 2.864-3.32 0-5.79-.952-7.414-2.864-1.625-1.902-2.442-4.508-2.442-7.828V10.818zM108.51 10.818v23.385h-4.478V10.818h4.477zM108.8 2.59c0 1.4-1.13 2.53-2.527 2.53a2.53 2.53 0 0 1-2.53-2.53 2.532 2.532 0 0 1 2.53-2.528A2.525 2.525 0 0 1 108.8 2.59zM130.606 11.582v5.815c-1.843-2.105-4.084-3.148-6.72-3.148-2.17 0-4.026.812-5.548 2.45-1.52 1.636-2.27 3.565-2.27 5.763 0 2.408.75 4.4 2.27 5.972 1.522 1.574 3.47 2.356 5.848 2.356 2.438 0 4.576-1.03 6.42-3.104v5.765c-1.94 1.032-4.096 1.554-6.474 1.554-3.48 0-6.442-1.188-8.903-3.564-2.45-2.366-3.678-5.296-3.678-8.765 0-3.62 1.23-6.62 3.677-9.03 2.46-2.41 5.517-3.616 9.154-3.616 2.377-.002 4.452.518 6.222 1.552zM138.07.033V19.67l8.852-8.847h5.925l-10.05 9.747 10.938 13.63h-5.82l-8.303-10.6-1.54 1.54v9.06h-4.478V.033h4.477z"/><path fill="#444545" d="M165.52 10.018c5.895 0 6.877 4.137 6.877 4.137s1.684-4.137 7.21-4.137c5.135 0 8.695 3.35 8.695 10.05v14.137h-4.48v-13.39c0-.893-.04-1.685-.124-2.36a9.228 9.228 0 0 0-.537-2.14c-.29-.745-.733-1.323-1.343-1.716-.62-.394-1.386-.6-2.316-.6-.93 0-1.718.197-2.368.58-.64.37-1.136.836-1.49 1.383-.342.548-.62 1.242-.815 2.068-.198.83-.322 1.573-.376 2.234-.048.663-.08 1.428-.08 2.298v11.643h-4.466V21.662c0-.796-.023-1.46-.052-1.986a15.096 15.096 0 0 0-.28-1.995c-.144-.796-.36-1.426-.64-1.892-.28-.466-.705-.878-1.273-1.242-.558-.36-1.24-.545-2.038-.545-1.127 0-2.067.258-2.812.775-.745.506-1.27 1.242-1.592 2.185-.31.95-.52 1.838-.62 2.663-.102.83-.145 1.812-.145 2.94v11.643h-4.48V19.812c.002-6.267 3.355-9.794 9.548-9.794zM209.51 16.74c-1.574-1.606-3.46-2.407-5.667-2.407-2.208 0-4.094.8-5.657 2.407-1.57 1.604-2.365 3.52-2.365 5.76 0 2.21.796 4.115 2.366 5.74 1.564 1.626 3.45 2.428 5.657 2.428 2.208 0 4.093-.802 5.666-2.427 1.56-1.625 2.353-3.53 2.353-5.74 0-2.24-.792-4.156-2.354-5.76zm-14.562-3.103c2.426-2.41 5.384-3.616 8.896-3.616 3.51 0 6.47 1.207 8.896 3.617 2.416 2.404 3.638 5.35 3.638 8.862s-1.222 6.47-3.638 8.876c-2.426 2.404-5.386 3.603-8.896 3.603-3.512 0-6.47-1.2-8.896-3.604-2.418-2.406-3.637-5.366-3.637-8.877s1.22-6.458 3.638-8.863zM231 34.197c3.183 0 6.565-1.177 8.55-3.546 1.987-2.355 2.988-5.16 2.988-8.414 0-3.455-.98-6.18-2.935-8.58-1.956-2.39-4.625-3.59-8.004-3.59-1.566 0-3.022.395-4.375 1.17-.218.124-.412.27-.62.415v3.63c1.167-.87 2.606-1.303 4.31-1.303 2.214 0 3.972.806 5.274 2.44 1.305 1.624 1.94 3.388 1.94 5.67 0 2.247-.65 4.18-1.972 5.78-1.31 1.615-3.06 2.422-5.244 2.422-2.283 0-7.132-1.673-7.132-10.725V.026h-4.446v20.527s-.3 13.645 11.663 13.645zM249.987 10.818v23.385h-4.478V10.818h4.477zM250.28 2.59c0 1.4-1.132 2.53-2.53 2.53a2.534 2.534 0 0 1-2.53-2.53 2.535 2.535 0 0 1 2.53-2.528 2.528 2.528 0 0 1 2.53 2.528zM257.353.03v34.173h-4.477V.03h4.477zM265.087 19.81h13.152c-.273-1.806-.97-3.244-2.11-4.3-1.13-1.053-2.593-1.574-4.368-1.574-1.742 0-3.223.55-4.44 1.647-1.223 1.106-1.964 2.515-2.235 4.226zm17.666 3.406h-17.915c.042 2.108.71 3.924 2.012 5.466 1.305 1.545 2.995 2.304 5.058 2.304 1.65 0 2.994-.375 4.046-1.124 1.054-.75 2.047-1.898 2.986-3.432l3.813 2.148c-1.104 2.013-2.618 3.588-4.545 4.723-1.92 1.138-4.037 1.703-6.342 1.703-3.515 0-6.318-1.17-8.406-3.516-2.084-2.333-3.14-5.276-3.14-8.823 0-3.742.995-6.788 2.964-9.135 1.97-2.337 4.798-3.504 8.478-3.504 3.577 0 6.3 1.155 8.178 3.48 1.876 2.328 2.813 5.33 2.813 9v.71z"/></svg>