<svg id="Layer_2" data-name="Layer 2" xmlns="http://www.w3.org/2000/svg" viewBox="0 0 290 47"><defs><style>.cls-1{fill:#fff}</style></defs><title>QuickMobile_logo-allwhite</title><path class="cls-1" d="M185.38 10.83c-3.44 0-5.58 1.14-6.92 2.65-1.34-1.52-3.48-2.65-6.92-2.65-9.15 0-9.15 8.08-9.15 9.76v14h4.45V21.11c0-.76.12-5.88 4.7-5.88s4.7 5.11 4.7 5.88v13.52h4.45V21.11c0-.76.12-5.88 4.7-5.88s4.7 5.11 4.7 5.88v13.52h4.45v-14c-.01-1.72-.01-9.8-9.16-9.8z"/><path id="o" class="cls-1" d="M200.83 14.39a12.77 12.77 0 0 1 17.68 0 11.76 11.76 0 0 1 3.61 8.72 11.79 11.79 0 0 1-3.61 8.73 12.8 12.8 0 0 1-17.68 0 11.8 11.8 0 0 1-3.61-8.73 11.76 11.76 0 0 1 3.61-8.72zm14.47 3.05a7.87 7.87 0 0 0-11.25 0 8 8 0 0 0 0 11.31 7.82 7.82 0 0 0 11.25 0 8 8 0 0 0 .01-11.31z"/><path class="cls-1" d="M255.84 11.62v23h-4.45v-23h4.45zM256.13 3.52A2.51 2.51 0 1 1 253.61 1a2.5 2.5 0 0 1 2.52 2.52z"/><path id="l" class="cls-1" d="M264.05 1v33.63h-4.45V1h4.45z"/><path id="e" class="cls-1" d="M289 23.82h-17.81a8.28 8.28 0 0 0 2 5.38 6.31 6.31 0 0 0 5 2.27 6.81 6.81 0 0 0 4-1.11 11.37 11.37 0 0 0 3-3.38l3.81 2.11a12 12 0 0 1-4.52 4.65 12.24 12.24 0 0 1-6.3 1.67 10.68 10.68 0 0 1-8.36-3.41 12.49 12.49 0 0 1-3.12-8.68 13.41 13.41 0 0 1 2.94-9q2.94-3.45 8.43-3.45 5.33 0 8.13 3.43a13.57 13.57 0 0 1 2.8 8.85v.7zm-17.56-3.35h13.07a6.93 6.93 0 0 0-2.1-4.23 6.17 6.17 0 0 0-4.34-1.55 6.42 6.42 0 0 0-4.41 1.62 6.86 6.86 0 0 0-2.22 4.15z"/><path class="cls-1" d="M133.08 26.91a8.67 8.67 0 0 1-1.39 1.85 7.82 7.82 0 0 1-11.25 0 8 8 0 0 1 0-11.31 7.87 7.87 0 0 1 11.25 0 8.39 8.39 0 0 1 1.4 1.86l3.91-2.16a12.39 12.39 0 0 0-2.13-2.76 12.77 12.77 0 0 0-17.68 0 11.76 11.76 0 0 0-3.61 8.72 11.8 11.8 0 0 0 3.61 8.73 12.8 12.8 0 0 0 17.68 0 12.39 12.39 0 0 0 2.13-2.77z"/><path id="k" class="cls-1" d="M144.33 1v19.32l8.8-8.71H159l-10 9.59 10.88 13.41h-5.79l-8.25-10.43-1.53 1.52v8.91h-4.45V1h4.45z"/><path class="cls-1" d="M92.6 35.41c9.44 0 9.45-8.34 9.45-10.08V11.61h-4.46v13.18c0 .79-.27 6.22-5 6.22s-5-5.44-5-6.22V11.61h-4.44v13.72c0 1.73.01 10.09 9.45 10.08zM110.43 11.61v23H106v-23h4.45zM110.72 3.52A2.51 2.51 0 1 1 108.2 1a2.5 2.5 0 0 1 2.52 2.52z"/><path id="b" class="cls-1" d="M68.23 10.83c-3.27 0-6.75 1.2-8.79 3.61A12.78 12.78 0 0 0 56.36 23a13 13 0 0 0 3 8.73 10.1 10.1 0 0 0 8.23 3.65 9 9 0 0 0 4.5-1.19c.22-.13.42-.28.64-.42v-3.69a7.27 7.27 0 0 1-4.43 1.33 6.59 6.59 0 0 1-5.42-2.48 8.64 8.64 0 0 1-2-5.77 8.88 8.88 0 0 1 2-5.88 6.62 6.62 0 0 1 5.39-2.46c2.35 0 7.34 1.7 7.34 10.91V46h4.57V24.72s.34-13.89-11.95-13.89z"/><path id="b-2" data-name="b" class="cls-1" d="M236.77 35.41c3.27 0 6.75-1.2 8.79-3.61a12.79 12.79 0 0 0 3.07-8.57 13 13 0 0 0-3-8.73 10.1 10.1 0 0 0-8.23-3.65 9 9 0 0 0-4.5 1.19c-.22.13-.43.28-.64.42v3.69a7.26 7.26 0 0 1 4.43-1.33 6.6 6.6 0 0 1 5.42 2.48 8.64 8.64 0 0 1 2 5.77 8.88 8.88 0 0 1-2 5.88 6.62 6.62 0 0 1-5.39 2.46c-2.35 0-7.34-1.7-7.34-10.91V1h-4.57v20.53s-.34 13.88 11.96 13.88z"/><path class="cls-1" d="M26.39 23.5a2.66 2.66 0 1 1-2.66-2.63 2.64 2.64 0 0 1 2.66 2.63z"/><path class="cls-1" d="M42 37.33H23.91A13.95 13.95 0 1 1 38 23.39a13.85 13.85 0 0 1-4.51 10.22h10a16.73 16.73 0 0 0 3-10.11A22.73 22.73 0 0 0 1 23.5 22.62 22.62 0 0 0 23.74 46h27.09z"/></svg>