<?xml version="1.0" encoding="iso-8859-1"?>
<!-- Generator: Adobe Illustrator 19.0.0, SVG Export Plug-In . SVG Version: 6.00 Build 0)  -->
<svg version="1.1" id="Layer_1" xmlns="http://www.w3.org/2000/svg" xmlns:xlink="http://www.w3.org/1999/xlink" x="0px" y="0px"
	 viewBox="0 0 256 143" style="enable-background:new 0 0 256 143;" xml:space="preserve">
<g>
	<g>
		<path d="M9.035,115.028c0-8.187,0-9.695-0.107-11.419c-0.108-1.832-0.539-2.693-2.316-3.07c-0.431-0.107-1.347-0.162-2.101-0.162
			c-0.592,0-0.916-0.107-0.916-0.484c0-0.377,0.377-0.485,1.185-0.485c2.854,0,6.248,0.162,7.756,0.162
			c2.208,0,5.332-0.162,7.81-0.162c6.733,0,9.157,2.262,10.019,3.07c1.185,1.131,2.693,3.555,2.693,6.41
			c0,7.648-5.602,13.035-13.25,13.035c-0.27,0-0.862,0-1.131-0.054c-0.269-0.055-0.646-0.108-0.646-0.485
			c0-0.431,0.377-0.592,1.508-0.592c3.017,0,7.218-3.394,7.218-8.888c0-1.777-0.162-5.386-3.178-8.08
			c-1.939-1.777-4.147-2.101-5.387-2.101c-0.808,0-1.616,0.054-2.101,0.215c-0.269,0.108-0.431,0.431-0.431,1.023v21.545
			c0,4.956,0,9.211,0.269,11.527c0.162,1.508,0.485,2.692,2.101,2.908c0.754,0.107,1.939,0.216,2.747,0.216
			c0.593,0,0.862,0.161,0.862,0.431c0,0.377-0.431,0.538-1.023,0.538c-3.555,0-6.948-0.161-8.349-0.161
			c-1.239,0-4.632,0.161-6.787,0.161c-0.7,0-1.078-0.161-1.078-0.538c0-0.27,0.216-0.431,0.862-0.431
			c0.808,0,1.455-0.108,1.939-0.216c1.077-0.216,1.346-1.4,1.562-2.963c0.269-2.262,0.269-6.517,0.269-11.473V115.028z"/>
		<path d="M67.804,120.415c0.107,0,0.269-0.054,0.269-0.323v-0.97c0-6.948-0.054-8.618-0.108-10.072
			c-0.107-1.562-0.539-2.047-2.046-2.478c-0.377-0.107-1.185-0.162-1.832-0.162c-0.539,0-0.808-0.162-0.808-0.485
			c0-0.323,0.323-0.431,1.023-0.431c2.532,0,5.871,0.108,7.11,0.108c1.131,0,4.255-0.108,6.087-0.108c0.7,0,1.023,0.108,1.023,0.431
			c0,0.323-0.323,0.485-0.862,0.485c-0.377,0-0.808,0.054-1.4,0.162c-1.239,0.216-1.616,0.862-1.724,2.478
			c-0.108,1.454-0.108,2.747-0.108,9.695v8.08c0,4.201,0,7.811,0.215,9.803c0.162,1.293,0.431,2.155,1.885,2.37
			c0.646,0.108,1.67,0.162,2.424,0.162c0.485,0,0.754,0.269,0.754,0.484c0,0.323-0.377,0.484-0.97,0.484
			c-3.07,0-6.194-0.161-7.487-0.161c-1.078,0-4.417,0.161-6.249,0.161c-0.646,0-1.023-0.161-1.023-0.484
			c0-0.216,0.216-0.484,0.754-0.484c0.754,0,1.292-0.054,1.724-0.162c0.969-0.215,1.239-1.077,1.4-2.424
			c0.215-1.938,0.215-5.44,0.215-9.642v-3.501c0-0.161-0.162-0.27-0.269-0.27H49.921c-0.162,0-0.323,0.054-0.323,0.27v3.501
			c0,4.201,0.054,7.703,0.269,9.695c0.162,1.293,0.431,2.155,1.832,2.37c0.646,0.108,1.724,0.162,2.424,0.162
			c0.539,0,0.754,0.269,0.754,0.484c0,0.323-0.377,0.484-0.969,0.484c-3.07,0-6.356-0.161-7.703-0.161
			c-1.077,0-4.201,0.161-6.086,0.161c-0.593,0-0.916-0.161-0.916-0.484c0-0.216,0.161-0.484,0.754-0.484
			c0.7,0,1.239-0.054,1.67-0.162c0.969-0.215,1.239-1.077,1.4-2.424c0.215-1.938,0.215-5.548,0.215-9.749v-8.08
			c0-6.948,0-8.241-0.054-9.695c-0.108-1.562-0.539-2.047-2.047-2.478c-0.377-0.107-1.185-0.162-1.885-0.162
			c-0.485,0-0.808-0.162-0.808-0.485c0-0.323,0.377-0.431,1.023-0.431c2.532,0,5.656,0.108,6.948,0.108
			c1.131,0,4.417-0.108,6.302-0.108c0.646,0,0.97,0.108,0.97,0.431c0,0.323-0.27,0.485-0.862,0.485
			c-0.377,0-0.808,0.054-1.347,0.162c-1.293,0.216-1.67,0.862-1.778,2.478c-0.107,1.454-0.107,3.124-0.107,10.072v0.97
			c0,0.269,0.162,0.323,0.323,0.323H67.804z"/>
		<path d="M89.946,118.745c0-6.948,0-8.241-0.054-9.695c-0.108-1.562-0.593-2.101-1.616-2.424c-0.539-0.162-1.131-0.216-1.724-0.216
			c-0.485,0-0.754-0.107-0.754-0.539c0-0.269,0.377-0.377,1.131-0.377c1.777,0,5.009,0.108,6.355,0.108
			c1.185,0,4.255-0.108,6.087-0.108c0.592,0,0.969,0.108,0.969,0.377c0,0.431-0.269,0.539-0.754,0.539s-0.862,0.054-1.4,0.162
			c-1.293,0.216-1.67,0.862-1.778,2.478c-0.107,1.454-0.107,2.747-0.107,9.695v8.08c0,4.417,0,8.079,0.215,10.019
			c0.162,1.239,0.485,1.939,1.885,2.154c0.646,0.108,1.724,0.162,2.424,0.162c0.539,0,0.754,0.269,0.754,0.484
			c0,0.323-0.377,0.484-0.916,0.484c-3.124,0-6.356-0.161-7.648-0.161c-1.077,0-4.309,0.161-6.194,0.161
			c-0.593,0-0.916-0.161-0.916-0.484c0-0.216,0.161-0.484,0.754-0.484c0.7,0,1.239-0.054,1.67-0.162
			c0.969-0.215,1.239-0.861,1.4-2.208c0.215-1.886,0.215-5.548,0.215-9.965V118.745z"/>
		<path d="M109.985,139.482c-0.862-0.377-1.023-0.646-1.023-1.832c0-2.962,0.215-6.194,0.27-7.056c0.054-0.809,0.215-1.4,0.646-1.4
			c0.485,0,0.539,0.484,0.539,0.915c0,0.7,0.215,1.832,0.484,2.747c1.185,3.986,4.363,5.44,7.703,5.44
			c4.848,0,7.217-3.285,7.217-6.141c0-2.639-0.808-5.117-5.278-8.618l-2.478-1.938c-5.925-4.632-7.972-8.403-7.972-12.766
			c0-5.925,4.955-10.18,12.442-10.18c3.501,0,5.764,0.539,7.164,0.916c0.484,0.107,0.754,0.269,0.754,0.646
			c0,0.7-0.216,2.262-0.216,6.464c0,1.185-0.161,1.616-0.592,1.616c-0.378,0-0.539-0.323-0.539-0.969c0-0.485-0.27-2.155-1.4-3.555
			c-0.808-1.023-2.37-2.639-5.871-2.639c-3.986,0-6.41,2.316-6.41,5.548c0,2.478,1.239,4.363,5.709,7.756l1.508,1.131
			c6.518,4.902,8.834,8.618,8.834,13.735c0,3.124-1.186,6.841-5.063,9.372c-2.693,1.724-5.709,2.209-8.564,2.209
			C114.725,140.883,112.301,140.506,109.985,139.482z"/>
		<path d="M166.706,120.415c0.107,0,0.27-0.054,0.27-0.323v-0.97c0-6.948-0.055-8.618-0.108-10.072
			c-0.107-1.562-0.538-2.047-2.047-2.478c-0.377-0.107-1.185-0.162-1.831-0.162c-0.539,0-0.808-0.162-0.808-0.485
			c0-0.323,0.323-0.431,1.023-0.431c2.531,0,5.871,0.108,7.109,0.108c1.132,0,4.256-0.108,6.087-0.108
			c0.7,0,1.023,0.108,1.023,0.431c0,0.323-0.323,0.485-0.862,0.485c-0.377,0-0.808,0.054-1.4,0.162
			c-1.238,0.216-1.615,0.862-1.724,2.478c-0.107,1.454-0.107,2.747-0.107,9.695v8.08c0,4.201,0,7.811,0.216,9.803
			c0.161,1.293,0.431,2.155,1.885,2.37c0.646,0.108,1.67,0.162,2.424,0.162c0.484,0,0.754,0.269,0.754,0.484
			c0,0.323-0.377,0.484-0.97,0.484c-3.069,0-6.193-0.161-7.486-0.161c-1.077,0-4.417,0.161-6.248,0.161
			c-0.646,0-1.023-0.161-1.023-0.484c0-0.216,0.215-0.484,0.754-0.484c0.754,0,1.293-0.054,1.724-0.162
			c0.97-0.215,1.238-1.077,1.4-2.424c0.216-1.938,0.216-5.44,0.216-9.642v-3.501c0-0.161-0.162-0.27-0.27-0.27h-17.883
			c-0.162,0-0.323,0.054-0.323,0.27v3.501c0,4.201,0.054,7.703,0.27,9.695c0.161,1.293,0.431,2.155,1.831,2.37
			c0.646,0.108,1.724,0.162,2.424,0.162c0.539,0,0.754,0.269,0.754,0.484c0,0.323-0.377,0.484-0.97,0.484
			c-3.069,0-6.355-0.161-7.702-0.161c-1.077,0-4.201,0.161-6.087,0.161c-0.592,0-0.915-0.161-0.915-0.484
			c0-0.216,0.161-0.484,0.754-0.484c0.7,0,1.239-0.054,1.67-0.162c0.97-0.215,1.238-1.077,1.4-2.424
			c0.216-1.938,0.216-5.548,0.216-9.749v-8.08c0-6.948,0-8.241-0.055-9.695c-0.107-1.562-0.538-2.047-2.047-2.478
			c-0.377-0.107-1.185-0.162-1.885-0.162c-0.484,0-0.808-0.162-0.808-0.485c0-0.323,0.377-0.431,1.023-0.431
			c2.531,0,5.655,0.108,6.948,0.108c1.131,0,4.417-0.108,6.302-0.108c0.646,0,0.97,0.108,0.97,0.431c0,0.323-0.27,0.485-0.862,0.485
			c-0.377,0-0.808,0.054-1.347,0.162c-1.292,0.216-1.669,0.862-1.777,2.478c-0.107,1.454-0.107,3.124-0.107,10.072v0.97
			c0,0.269,0.161,0.323,0.323,0.323H166.706z"/>
		<path d="M183.139,122.784c0-7.81,5.494-17.937,19.876-17.937c11.958,0,19.391,6.625,19.391,17.129
			c0,10.503-7.648,18.744-19.875,18.744C188.741,140.721,183.139,130.918,183.139,122.784z M215.35,123.646
			c0-10.126-6.087-16.375-13.735-16.375c-5.278,0-11.473,2.801-11.473,14.112c0,9.426,5.386,16.859,14.327,16.859
			C207.809,138.243,215.35,136.681,215.35,123.646z"/>
		<path d="M231.244,118.745c0-6.948,0-8.241-0.055-9.695c-0.107-1.562-0.538-2.047-2.047-2.478
			c-0.377-0.107-1.185-0.162-1.885-0.162c-0.484,0-0.808-0.162-0.808-0.485c0-0.323,0.377-0.431,1.077-0.431
			c2.478,0,5.494,0.108,6.841,0.108c1.938,0,5.709-0.108,7.863-0.108c5.926,0,8.08,1.939,8.834,2.585
			c1.023,0.97,2.37,3.016,2.37,5.494c0,6.463-5.171,11.096-11.904,11.096c-0.215,0-1.185,0-1.4-0.055
			c-0.27,0-0.592-0.161-0.592-0.484c0-0.377,0.538-0.593,1.562-0.593c2.64,0,6.356-2.747,6.356-7.433
			c0-1.508-0.162-4.525-2.802-6.787c-1.724-1.508-3.662-1.724-4.739-1.724c-0.7,0-1.616,0.054-2.047,0.215
			c-0.27,0.108-0.377,0.377-0.377,0.862v18.152c0,4.201,0,7.811,0.215,9.803c0.162,1.293,0.432,2.155,1.832,2.37
			c0.7,0.108,1.724,0.162,2.424,0.162c0.538,0,0.754,0.269,0.754,0.484c0,0.323-0.377,0.484-0.862,0.484
			c-3.178,0-6.518-0.161-7.756-0.161c-1.077,0-4.094,0.161-5.979,0.161c-0.592,0-0.915-0.161-0.915-0.484
			c0-0.216,0.161-0.484,0.754-0.484c0.7,0,1.239-0.054,1.67-0.162c0.97-0.215,1.238-1.077,1.4-2.424
			c0.216-1.938,0.216-5.548,0.216-9.749V118.745z"/>
	</g>
	<g>
		<g>
			<path style="fill:#BE8108;" d="M215.634,80.576c-2.741-0.23-5.342,0.82-7.92,1.587c-0.672,0.206-1.343,0.415-2.013,0.626
				l0.061-7.43c23.206,0,41.162-13.509,41.161-37.219c0-15.142-9.379-34.946-29.117-34.979c-12.022-0.02-19.161,7.869-20.318,17.091
				c-1.226,9.767-1.154,16.366-0.608,24.57l1.678,25.197c-14.281-2.717-21.721-18.419-21.721-34.348
				c0.001-17.761,8.95-30.329,19.14-33.498c-15.464,1.579-30.322,18.207-30.322,33.498c0,18.977,11.266,36.519,32.902,39.37
				l1.012,9.703c-2.593,0.822-5.192,1.621-7.819,2.33c-5.545,1.362-11.006,3.103-16.638,4.068c-1.036,0.238-2.406,0.423-2.702,1.648
				c-0.612,2.058-0.352,4.271-0.15,6.373c3.486-0.903,7.061-1.357,10.587-2.058c6.083-0.987,11.784-3.197,17.431-5.57l3.111,29.823
				l0.844,18.61l1.415-50.708c2.146-0.901,4.3-1.777,6.479-2.57c4.024-1.895,8.577-2.627,12.979-1.966
				c4.848,0.846,9.705,1.794,14.337,3.478c-1.269-1.071-2.861-1.631-4.332-2.358C229.002,82.938,222.364,81.202,215.634,80.576z
				 M206.88,33.3c0.298-9.992,0.175-24.677,10.596-24.546c9.726,0.122,18.264,16.349,18.267,28.891
				c0.003,20.463-11.724,33.122-29.981,33.122L206.88,33.3z"/>
		</g>
	</g>
	<g>
		<g>
			<path style="fill:#E9D5AA;" d="M214.634,80.778c-2.741-0.23-5.342,0.82-7.92,1.587c-0.672,0.206-1.343,0.415-2.013,0.626
				l0.061-7.43c23.206,0,41.162-13.509,41.161-37.219c0-15.142-9.379-34.946-29.117-34.979c-12.022-0.02-19.161,7.869-20.318,17.091
				c-1.226,9.767-1.154,16.366-0.608,24.57l1.678,25.197c-14.281-2.717-21.721-18.419-21.721-34.348
				c0.001-17.761,8.95-30.33,19.14-33.498c-15.464,1.579-30.322,18.207-30.322,33.498c0,18.977,11.266,36.519,32.902,39.37
				l1.012,9.703c-2.593,0.822-5.192,1.621-7.819,2.33c-5.545,1.362-11.006,3.103-16.638,4.068c-1.036,0.238-2.406,0.423-2.702,1.648
				c-0.612,2.058-0.352,4.271-0.15,6.373c3.486-0.903,7.061-1.357,10.587-2.058c6.083-0.987,11.784-3.197,17.431-5.57l3.111,29.823
				l1.844,18.409l0.415-50.506c2.146-0.901,4.3-1.777,6.479-2.57c4.024-1.895,8.577-2.627,12.979-1.966
				c4.848,0.846,9.705,1.794,14.337,3.478c-1.269-1.071-2.861-1.631-4.332-2.358C228.002,83.14,221.364,81.403,214.634,80.778z
				 M205.88,33.501c0.298-9.992,0.175-24.677,10.596-24.546c9.726,0.122,18.264,16.349,18.267,28.891
				c0.003,20.463-11.724,33.122-29.981,33.122L205.88,33.501z"/>
		</g>
	</g>
</g>
</svg>
