<?xml version="1.0" encoding="utf-8"?>
<!-- Generator: Adobe Illustrator 19.2.1, SVG Export Plug-In . SVG Version: 6.00 Build 0)  -->
<!DOCTYPE svg PUBLIC "-//W3C//DTD SVG 1.1//EN" "http://www.w3.org/Graphics/SVG/1.1/DTD/svg11.dtd">
<svg version="1.1" id="Layer_1" xmlns="http://www.w3.org/2000/svg" xmlns:xlink="http://www.w3.org/1999/xlink" x="0px" y="0px"
	 viewBox="0 0 70 70" style="enable-background:new 0 0 70 70;" xml:space="preserve">
<style type="text/css">
	.st0{opacity:0.4;fill:#7730D9;enable-background:new    ;}
	.st1{fill:#7730D9;}
</style>
<title>QM-Wesite2016-Configure</title>
<metadata><?xpacket begin="﻿" id="W5M0MpCehiHzreSzNTczkc9d"?>
<x:xmpmeta xmlns:x="adobe:ns:meta/" x:xmptk="Adobe XMP Core 5.6-c111 79.158366, 2015/09/25-01:12:00        ">
   <rdf:RDF xmlns:rdf="http://www.w3.org/1999/02/22-rdf-syntax-ns#">
      <rdf:Description rdf:about=""
            xmlns:dc="http://purl.org/dc/elements/1.1/">
         <dc:title>
            <rdf:Alt>
               <rdf:li xml:lang="x-default">QM-Wesite2016-Configure</rdf:li>
            </rdf:Alt>
         </dc:title>
      </rdf:Description>
   </rdf:RDF>
</x:xmpmeta>
                                                                                                    
                                                                                                    
                                                                                                    
                                                                                                    
                                                                                                    
                                                                                                    
                                                                                                    
                                                                                                    
                                                                                                    
                                                                                                    
                                                                                                    
                                                                                                    
                                                                                                    
                                                                                                    
                                                                                                    
                                                                                                    
                                                                                                    
                                                                                                    
                                                                                                    
                                                                                                    
                           
<?xpacket end="w"?></metadata>
<polygon class="st0" points="28.6,24.6 26.2,26 24.9,28.4 23.5,26 21.1,24.6 23.5,23.3 24.9,20.9 26.2,23.3 "/>
<polygon class="st0" points="19.3,29.7 18.1,30.4 17.5,31.6 16.8,30.4 15.6,29.7 16.8,29 17.5,27.8 18.1,29 "/>
<polygon class="st0" points="13.4,23.5 12.4,24 11.9,24.9 11.5,24 10.6,23.5 11.5,23 11.9,22.1 12.4,23 "/>
<path class="st1" d="M17.9,63.2c-0.2,0-0.4,0-0.6,0c-1.1-0.1-2.1-0.7-2.9-1.5l-3.1-3.1c-1.6-1.6-2.2-4.3-0.5-6.1l23-23
	c-1.5-5-0.1-10.4,3.6-14.2c3.9-3.8,9.6-5.1,14.7-3.3l1.5,0.5l-7.3,7.3l0.7,6.2l6.1,0.6l7.3-7.3l0.5,1.5c1.8,5.1,0.5,10.9-3.3,14.8
	c-3.8,3.7-9.2,5-14.2,3.6l-23,23C19.8,62.8,18.9,63.2,17.9,63.2z M47.5,13.1c-3.2,0-6.3,1.2-8.6,3.5c-3.3,3.4-4.4,8.3-2.9,12.8
	l0.2,0.6L12.3,53.9c-0.9,0.9-0.4,2.3,0.5,3.2l3.1,3.1c0.9,0.9,2.4,1.3,3.2,0.5l23.9-23.8l0.6,0.2c4.5,1.5,9.4,0.4,12.8-2.9
	c2.9-2.9,4.1-7.1,3.3-11.1l-5.7,5.7l-8.7-0.9l-1-8.8l5.6-5.6C49.1,13.2,48.3,13.1,47.5,13.1z"/>
<path class="st0" d="M18.2,58.3c-1.9,0-3.5-1.6-3.5-3.5s1.6-3.5,3.5-3.5s3.5,1.6,3.5,3.5S20.1,58.3,18.2,58.3z M18.2,53.3
	c-0.8,0-1.5,0.7-1.5,1.5s0.7,1.5,1.5,1.5s1.5-0.7,1.5-1.5S19,53.3,18.2,53.3z"/>
</svg>
