<?xml version="1.0" encoding="utf-8"?>
<!-- Generator: Adobe Illustrator 19.2.1, SVG Export Plug-In . SVG Version: 6.00 Build 0)  -->
<!DOCTYPE svg PUBLIC "-//W3C//DTD SVG 1.1//EN" "http://www.w3.org/Graphics/SVG/1.1/DTD/svg11.dtd">
<svg version="1.1" id="Layer_1" xmlns="http://www.w3.org/2000/svg" xmlns:xlink="http://www.w3.org/1999/xlink" x="0px" y="0px"
	 viewBox="0 0 70 70" style="enable-background:new 0 0 70 70;" xml:space="preserve">
<style type="text/css">
	.st0{fill:#7730D9;}
	.st1{opacity:0.4;fill:#7730D9;enable-background:new    ;}
</style>
<title>QM-Web-Icons</title>
<metadata><?xpacket begin="﻿" id="W5M0MpCehiHzreSzNTczkc9d"?>
<x:xmpmeta xmlns:x="adobe:ns:meta/" x:xmptk="Adobe XMP Core 5.6-c111 79.158366, 2015/09/25-01:12:00        ">
   <rdf:RDF xmlns:rdf="http://www.w3.org/1999/02/22-rdf-syntax-ns#">
      <rdf:Description rdf:about=""
            xmlns:dc="http://purl.org/dc/elements/1.1/">
         <dc:title>
            <rdf:Alt>
               <rdf:li xml:lang="x-default">QM-Web-Icons</rdf:li>
            </rdf:Alt>
         </dc:title>
      </rdf:Description>
   </rdf:RDF>
</x:xmpmeta>
                                                                                                    
                                                                                                    
                                                                                                    
                                                                                                    
                                                                                                    
                                                                                                    
                                                                                                    
                                                                                                    
                                                                                                    
                                                                                                    
                                                                                                    
                                                                                                    
                                                                                                    
                                                                                                    
                                                                                                    
                                                                                                    
                                                                                                    
                                                                                                    
                                                                                                    
                                                                                                    
                           
<?xpacket end="w"?></metadata>
<path class="st0" d="M31.7,44.4c-4.8,0-9.3-1.9-12.7-5.3c-7-7-7-18.4,0-25.4l0,0c7-7,18.4-7,25.4,0c7,7,7,18.4,0,25.4
	C41,42.6,36.4,44.4,31.7,44.4z M20.4,15.2c-6.2,6.2-6.2,16.3,0,22.5c3,3,7,4.7,11.3,4.7s8.3-1.7,11.3-4.7c6.2-6.2,6.2-16.3,0-22.5
	C36.7,9,26.6,9,20.4,15.2L20.4,15.2z"/>
<rect x="45.2" y="37.4" transform="matrix(0.707 -0.7072 0.7072 0.707 -15.4803 44.6626)" class="st0" width="2" height="7.1"/>
<path class="st0" d="M58.6,59.9l-14-14l6.5-6.5l14,14L58.6,59.9z M47.4,45.9l11.2,11.2l3.6-3.6L51.1,42.3L47.4,45.9z"/>
<path class="st1" d="M8.5,54.9c-0.3,0-0.7-0.2-0.8-0.5C7.4,54,7.5,53.4,8,53.1c6-3.8,9.2-9,12.3-13.9C23.7,33.6,27,28.3,33.8,26
	c15.3-5.2,18.1-7.4,23.3-18.3C57.4,7.2,58,7,58.5,7.2C59,7.5,59.2,8.1,59,8.6c-5.5,11.4-8.7,14-24.5,19.3C28.3,30,25.4,34.7,22,40.2
	c-3.1,4.9-6.5,10.5-12.9,14.6C8.9,54.9,8.7,54.9,8.5,54.9z"/>
</svg>
