<?xml version="1.0" encoding="utf-8"?>
<!-- Generator: Adobe Illustrator 19.2.1, SVG Export Plug-In . SVG Version: 6.00 Build 0)  -->
<!DOCTYPE svg PUBLIC "-//W3C//DTD SVG 1.1//EN" "http://www.w3.org/Graphics/SVG/1.1/DTD/svg11.dtd">
<svg version="1.1" id="Layer_1" xmlns="http://www.w3.org/2000/svg" xmlns:xlink="http://www.w3.org/1999/xlink" x="0px" y="0px"
	 viewBox="0 0 70 70" style="enable-background:new 0 0 70 70;" xml:space="preserve">
<style type="text/css">
	.st0{opacity:0.4;fill:#7730D9;enable-background:new    ;}
	.st1{fill:#7730D9;}
</style>
<title>QM-Website2016-Data</title>
<metadata><?xpacket begin="﻿" id="W5M0MpCehiHzreSzNTczkc9d"?>
<x:xmpmeta xmlns:x="adobe:ns:meta/" x:xmptk="Adobe XMP Core 5.6-c111 79.158366, 2015/09/25-01:12:00        ">
   <rdf:RDF xmlns:rdf="http://www.w3.org/1999/02/22-rdf-syntax-ns#">
      <rdf:Description rdf:about=""
            xmlns:dc="http://purl.org/dc/elements/1.1/">
         <dc:title>
            <rdf:Alt>
               <rdf:li xml:lang="x-default">QM-Website2016-Data</rdf:li>
            </rdf:Alt>
         </dc:title>
      </rdf:Description>
   </rdf:RDF>
</x:xmpmeta>
                                                                                                    
                                                                                                    
                                                                                                    
                                                                                                    
                                                                                                    
                                                                                                    
                                                                                                    
                                                                                                    
                                                                                                    
                                                                                                    
                                                                                                    
                                                                                                    
                                                                                                    
                                                                                                    
                                                                                                    
                                                                                                    
                                                                                                    
                                                                                                    
                                                                                                    
                                                                                                    
                           
<?xpacket end="w"?></metadata>
<polygon class="st0" points="24.8,29.9 23.8,27.9 21.8,26.9 23.8,25.8 24.8,23.9 25.9,25.8 27.8,26.9 25.9,27.9 "/>
<polygon class="st0" points="55.3,18.4 53.8,15.8 51.3,14.4 53.8,12.9 55.3,10.4 56.7,12.9 59.3,14.4 56.7,15.8 "/>
<path class="st1" d="M10.4,54.7c-0.2,0-0.4-0.1-0.6-0.2c-0.4-0.4-0.5-1-0.1-1.4l15.1-18.3l14.8,7.6l14.7-17.6c0.4-0.4,1-0.5,1.4-0.1
	c0.4,0.4,0.5,1,0.1,1.4L40,44.9l-14.8-7.6L11.2,54.3C11,54.6,10.7,54.7,10.4,54.7z"/>
<path class="st1" d="M62.9,60.7H8.1c-0.6,0-1-0.4-1-1s0.4-1,1-1h52.8V24.9c0-0.6,0.4-1,1-1s1,0.4,1,1V60.7z"/>
</svg>
