<?xml version="1.0" encoding="utf-8"?>
<!-- Generator: Adobe Illustrator 19.2.1, SVG Export Plug-In . SVG Version: 6.00 Build 0)  -->
<!DOCTYPE svg PUBLIC "-//W3C//DTD SVG 1.1//EN" "http://www.w3.org/Graphics/SVG/1.1/DTD/svg11.dtd">
<svg version="1.1" id="Layer_1" xmlns="http://www.w3.org/2000/svg" xmlns:xlink="http://www.w3.org/1999/xlink" x="0px" y="0px"
	 viewBox="0 0 70 70" style="enable-background:new 0 0 70 70;" xml:space="preserve">
<style type="text/css">
	.st0{fill:#7730D9;}
	.st1{opacity:0.4;fill:#7730D9;enable-background:new    ;}
</style>
<title>QM-Wesite2016-Security</title>
<metadata><?xpacket begin="﻿" id="W5M0MpCehiHzreSzNTczkc9d"?>
<x:xmpmeta xmlns:x="adobe:ns:meta/" x:xmptk="Adobe XMP Core 5.6-c111 79.158366, 2015/09/25-01:12:00        ">
   <rdf:RDF xmlns:rdf="http://www.w3.org/1999/02/22-rdf-syntax-ns#">
      <rdf:Description rdf:about=""
            xmlns:dc="http://purl.org/dc/elements/1.1/">
         <dc:title>
            <rdf:Alt>
               <rdf:li xml:lang="x-default">QM-Wesite2016-Security</rdf:li>
            </rdf:Alt>
         </dc:title>
      </rdf:Description>
   </rdf:RDF>
</x:xmpmeta>
                                                                                                    
                                                                                                    
                                                                                                    
                                                                                                    
                                                                                                    
                                                                                                    
                                                                                                    
                                                                                                    
                                                                                                    
                                                                                                    
                                                                                                    
                                                                                                    
                                                                                                    
                                                                                                    
                                                                                                    
                                                                                                    
                                                                                                    
                                                                                                    
                                                                                                    
                                                                                                    
                           
<?xpacket end="w"?></metadata>
<path class="st0" d="M19.8,63.9L19.8,63.9c-2.2-0.1-4-1.9-3.9-4.1l0-20.5c-0.1-2.2,1.6-4,3.9-4.1l33.2,0c1.1,0,2.1,0.5,2.8,1.2
	c0.7,0.8,1.1,1.8,1.1,2.9l0,20.5c0,1-0.3,2-1.1,2.8c-0.7,0.8-1.7,1.2-2.8,1.3L19.8,63.9z M19.8,61.9h33.1c0.5,0,1-0.2,1.4-0.6
	s0.6-0.9,0.5-1.4l0-20.6c0-0.6-0.2-1.1-0.6-1.5c-0.4-0.4-0.9-0.6-1.4-0.6H19.8c-1.1,0-2,1-1.9,2.1l0,20.6
	C17.8,60.9,18.7,61.8,19.8,61.9z"/>
<polygon class="st1" points="30,11.1 29.3,9.9 28,9.1 29.3,8.4 30,7.1 30.7,8.4 32,9.1 30.7,9.9 "/>
<polygon class="st1" points="13,35.6 11.9,33.7 10,32.6 11.9,31.5 13,29.6 14,31.5 16,32.6 14,33.7 "/>
<polygon class="st1" points="56,24.4 54.6,21.8 52,20.4 54.6,19 56,16.4 57.4,19 60,20.4 57.4,21.8 "/>
<path class="st0" d="M47.7,35.9h-2v-4.4c0-5.7-4.2-10.3-9.4-10.3c-5.2,0-9.4,4.6-9.4,10.3v4.4h-2v-4.4c0-6.8,5.1-12.3,11.4-12.3
	s11.4,5.5,11.4,12.3V35.9z"/>
<path class="st0" d="M51.6,35.9h-2v-5.4c-0.1-7.2-6-13-13.2-13c0,0-0.1,0-0.1,0c-7.2,0-13.1,5.8-13.2,13v5.4h-2v-5.4
	c0.1-8.3,6.9-15,15.3-15c0,0,0,0,0.1,0c8.3,0,15.1,6.7,15.2,15V35.9z"/>
<polygon class="st1" points="46.3,41 32.5,55.6 26.3,47.2 32.5,50 "/>
</svg>
