<?xml version="1.0" encoding="utf-8"?>
<!-- Generator: Adobe Illustrator 19.2.1, SVG Export Plug-In . SVG Version: 6.00 Build 0)  -->
<!DOCTYPE svg PUBLIC "-//W3C//DTD SVG 1.1//EN" "http://www.w3.org/Graphics/SVG/1.1/DTD/svg11.dtd">
<svg version="1.1" id="Layer_1" xmlns="http://www.w3.org/2000/svg" xmlns:xlink="http://www.w3.org/1999/xlink" x="0px" y="0px"
	 viewBox="0 0 70 70" style="enable-background:new 0 0 70 70;" xml:space="preserve">
<style type="text/css">
	.st0{fill:#7730D9;}
	.st1{opacity:0.4;fill:#7730D9;enable-background:new    ;}
</style>
<title>QM-Website2016-Control</title>
<metadata><?xpacket begin="﻿" id="W5M0MpCehiHzreSzNTczkc9d"?>
<x:xmpmeta xmlns:x="adobe:ns:meta/" x:xmptk="Adobe XMP Core 5.6-c111 79.158366, 2015/09/25-01:12:00        ">
   <rdf:RDF xmlns:rdf="http://www.w3.org/1999/02/22-rdf-syntax-ns#">
      <rdf:Description rdf:about=""
            xmlns:dc="http://purl.org/dc/elements/1.1/">
         <dc:title>
            <rdf:Alt>
               <rdf:li xml:lang="x-default">QM-Website2016-Control</rdf:li>
            </rdf:Alt>
         </dc:title>
      </rdf:Description>
   </rdf:RDF>
</x:xmpmeta>
                                                                                                    
                                                                                                    
                                                                                                    
                                                                                                    
                                                                                                    
                                                                                                    
                                                                                                    
                                                                                                    
                                                                                                    
                                                                                                    
                                                                                                    
                                                                                                    
                                                                                                    
                                                                                                    
                                                                                                    
                                                                                                    
                                                                                                    
                                                                                                    
                                                                                                    
                                                                                                    
                           
<?xpacket end="w"?></metadata>
<path class="st0" d="M38.7,56.1c0,0-0.1,0-0.1,0l-6.6,0c-1.5,0.1-2.8-1.1-2.8-2.6l0-1.7c-0.7-0.2-1.1-0.4-1.5-0.6l-1.1,1.1
	c-1.1,1.1-2.8,1-3.8,0l-4.5-4.9c-1-1.1-1-2.7,0-3.7l1.1-1.1c-0.2-0.5-0.5-1-0.7-1.5h-1.8c-0.8,0-1.5-0.2-2-0.7
	c-0.5-0.5-0.8-1.2-0.9-1.9l0-6.8l0-0.1c0.1-0.7,0.4-1.4,0.9-1.9c0.5-0.5,1.2-0.7,2-0.7l1.6,0c0.1-0.3,0.2-0.5,0.3-0.8
	c0.1-0.3,0.2-0.5,0.3-0.8l-1.2-1.2c-1.1-1.1-1-2.8,0-3.8l4.8-4.7c0.6-0.5,1.2-0.8,1.9-0.8c0.7,0,1.4,0.3,1.8,0.8l1.1,1.1
	c0.3-0.2,0.8-0.5,1.5-0.6l0-1.8c0.1-0.7,0.4-1.4,0.9-1.9c0.5-0.5,1.2-0.7,2-0.7l6.7,0c0.1,0,0.1,0,0.2,0c0.7,0.1,1.3,0.4,1.7,0.9
	s0.6,1.2,0.6,1.9l0,1.6c0.6,0.1,1.1,0.4,1.6,0.7l1.2-1.1c1.1-1,2.7-1,3.7,0l4.7,4.7c1.1,1.1,1,2.8,0,3.8l-1.1,1.1
	c0.2,0.5,0.5,1,0.6,1.5h1.8c0.2,0,0.4,0,0.6,0.1c0.6,0.1,1.1,0.5,1.5,1c0.3,0.5,0.4,1.1,0.3,1.6v6.5c0,0.1,0,0.2,0,0.3
	c0,1.3-1.1,2.4-2.5,2.4c0,0,0,0-0.1,0h-1.8c-0.2,0.5-0.4,1-0.7,1.5l1.2,1.2c0.5,0.6,0.8,1.2,0.8,1.9c0,0.7-0.3,1.4-0.8,1.8l-4.8,4.8
	c-0.5,0.5-1.1,0.7-1.8,0.7c-0.7,0-1.4-0.3-1.8-0.8L42.7,51c-0.5,0.3-1,0.5-1.6,0.7v1.6c0,0.1,0,0.3,0,0.4C41.1,55,40,56.1,38.7,56.1
	z M27.1,48.7l0.6,0.2c0.4,0.1,0.6,0.3,0.8,0.4c0.4,0.2,0.7,0.4,1.6,0.5l0.9,0.1v3.4c0,0.4,0.4,0.7,0.7,0.7l6.8,0
	c0.3,0,0.5-0.2,0.5-0.4l0-0.2V50l0.8-0.1c0.8-0.1,1.6-0.5,2.2-1l0.7-0.6l2.3,2.3c0.1,0.1,0.3,0.2,0.4,0.2c0.2,0,0.3-0.1,0.4-0.2
	l4.7-4.7c0.1-0.1,0.2-0.3,0.2-0.5c0-0.2-0.1-0.3-0.2-0.4l-2.2-2.2l0.4-0.7c0.4-0.8,0.8-1.7,1.1-2.6l0.2-0.7h3.2
	c0.3,0,0.5-0.2,0.5-0.4l0-0.2l0-6.9c0-0.1,0-0.2,0-0.3c0,0-0.1-0.1-0.2-0.2l0,0l-0.1,0h-3.3l-0.2-0.7c-0.3-0.9-0.6-1.7-1-2.5
	l-0.4-0.7l2.2-2.2c0.3-0.3,0.3-0.6,0-0.9l-4.7-4.7c-0.2-0.3-0.6-0.3-0.9,0l-2.6,2.4L42.1,21c-0.6-0.5-1.3-0.8-2.1-0.9L39.1,20v-3.4
	c0-0.2,0-0.4-0.1-0.5c-0.1-0.1-0.2-0.2-0.4-0.2l-6.8,0c-0.3,0-0.4,0-0.6,0.2c-0.1,0.1-0.2,0.3-0.2,0.5l0,3.4l-0.9,0.1
	c-0.9,0.1-1.2,0.3-1.6,0.5c-0.2,0.1-0.5,0.3-0.8,0.4l-0.6,0.2L25,19.1c-0.3-0.3-0.6-0.3-0.9,0l-4.9,4.7c-0.2,0.2-0.3,0.6,0,0.9
	l2.1,2.1l-0.2,0.6c-0.2,0.5-0.3,1-0.5,1.4c-0.2,0.5-0.3,0.9-0.5,1.4L19.9,31h-3.1c-0.3,0-0.4,0-0.6,0.2c-0.1,0.1-0.2,0.3-0.2,0.5
	l0,6.7c0,0.2,0.1,0.3,0.2,0.5s0.3,0.2,0.5,0.2l3.3,0l0.2,0.7c0.3,0.9,0.6,1.7,1.1,2.5l0.4,0.7l-2.2,2.2c-0.3,0.3-0.3,0.6,0,0.9
	l4.6,4.9c0.2,0.2,0.6,0.2,0.9,0L27.1,48.7z"/>
<path class="st1" d="M35.2,43c-4.4,0-8-3.6-8-8s3.6-8,8-8s8,3.6,8,8S39.7,43,35.2,43z M35.2,29c-3.3,0-6,2.7-6,6s2.7,6,6,6
	s6-2.7,6-6S38.5,29,35.2,29z"/>
</svg>
