<?xml version="1.0" encoding="utf-8"?>
<!-- Generator: Adobe Illustrator 19.2.1, SVG Export Plug-In . SVG Version: 6.00 Build 0)  -->
<!DOCTYPE svg PUBLIC "-//W3C//DTD SVG 1.1//EN" "http://www.w3.org/Graphics/SVG/1.1/DTD/svg11.dtd">
<svg version="1.1" id="Layer_1" xmlns="http://www.w3.org/2000/svg" xmlns:xlink="http://www.w3.org/1999/xlink" x="0px" y="0px"
	 viewBox="0 0 70 70" style="enable-background:new 0 0 70 70;" xml:space="preserve">
<style type="text/css">
	.st0{fill:#7730D9;}
	.st1{opacity:0.4;}
	.st2{opacity:0.4;fill:#7730D9;enable-background:new    ;}
</style>
<title>QM-Website2016-Content</title>
<metadata><?xpacket begin="﻿" id="W5M0MpCehiHzreSzNTczkc9d"?>
<x:xmpmeta xmlns:x="adobe:ns:meta/" x:xmptk="Adobe XMP Core 5.6-c111 79.158366, 2015/09/25-01:12:00        ">
   <rdf:RDF xmlns:rdf="http://www.w3.org/1999/02/22-rdf-syntax-ns#">
      <rdf:Description rdf:about=""
            xmlns:dc="http://purl.org/dc/elements/1.1/">
         <dc:title>
            <rdf:Alt>
               <rdf:li xml:lang="x-default">QM-Website2016-Content</rdf:li>
            </rdf:Alt>
         </dc:title>
      </rdf:Description>
   </rdf:RDF>
</x:xmpmeta>
                                                                                                    
                                                                                                    
                                                                                                    
                                                                                                    
                                                                                                    
                                                                                                    
                                                                                                    
                                                                                                    
                                                                                                    
                                                                                                    
                                                                                                    
                                                                                                    
                                                                                                    
                                                                                                    
                                                                                                    
                                                                                                    
                                                                                                    
                                                                                                    
                                                                                                    
                                                                                                    
                           
<?xpacket end="w"?></metadata>
<path class="st0" d="M42.9,53.4c-0.1,0-0.1,0-0.2,0c-0.3,0-0.5,0-0.8,0H13.3c-1.9,0-3.5-1.6-3.5-3.5V23.2c0-1.9,1.6-3.5,3.5-3.5h8.5
	l1.3,3.5h17v2h7v24C47.1,51.6,45.1,53.4,42.9,53.4z M42.7,51.4c1.4,0,2.4-1,2.5-2.2l0-21.9h-5v22c0.1,1,0.9,1.9,1.9,2.1L42.7,51.4z
	 M13.3,21.7c-0.8,0-1.5,0.7-1.5,1.5v26.6c0,0.8,0.7,1.5,1.5,1.5h25.5c-0.4-0.6-0.6-1.3-0.7-2.1l0-24.1H21.8l-1.3-3.5H13.3z"/>
<g class="st1">
	<path class="st0" d="M55.9,50.4c-0.1,0-0.1,0-0.2,0c-2.3,0.1-4.3-1.7-4.5-4.1l0-24.1H34.7l-1.3-3.5h-7.1c-0.8,0-1.5,0.7-1.5,1.5V24
		h-2v-3.8c0-1.9,1.6-3.5,3.5-3.5h8.5l1.3,3.5h17v2h7v24C60.1,48.6,58.1,50.4,55.9,50.4z M53.2,24.2v22c0.1,1.2,1.2,2.2,2.5,2.2
		c1.4,0.1,2.5-0.9,2.6-2.2l0-21.9H53.2z"/>
	<rect x="47.2" y="48.3" class="st0" width="8.5" height="2"/>
</g>
<rect x="11.5" y="46.5" class="st2" width="26.8" height="2"/>
</svg>
