<?xml version="1.0" encoding="utf-8"?>
<!-- Generator: Adobe Illustrator 19.2.1, SVG Export Plug-In . SVG Version: 6.00 Build 0)  -->
<!DOCTYPE svg PUBLIC "-//W3C//DTD SVG 1.1//EN" "http://www.w3.org/Graphics/SVG/1.1/DTD/svg11.dtd">
<svg version="1.1" id="Layer_1" xmlns="http://www.w3.org/2000/svg" xmlns:xlink="http://www.w3.org/1999/xlink" x="0px" y="0px"
	 viewBox="0 0 70 70" style="enable-background:new 0 0 70 70;" xml:space="preserve">
<style type="text/css">
	.st0{fill:#7730D9;}
	.st1{opacity:0.4;fill:#7730D9;enable-background:new    ;}
</style>
<title>QM-Website2016-FullyBranded</title>
<metadata><?xpacket begin="﻿" id="W5M0MpCehiHzreSzNTczkc9d"?>
<x:xmpmeta xmlns:x="adobe:ns:meta/" x:xmptk="Adobe XMP Core 5.6-c111 79.158366, 2015/09/25-01:12:00        ">
   <rdf:RDF xmlns:rdf="http://www.w3.org/1999/02/22-rdf-syntax-ns#">
      <rdf:Description rdf:about=""
            xmlns:dc="http://purl.org/dc/elements/1.1/">
         <dc:title>
            <rdf:Alt>
               <rdf:li xml:lang="x-default">QM-Website2016-FullyBranded</rdf:li>
            </rdf:Alt>
         </dc:title>
      </rdf:Description>
   </rdf:RDF>
</x:xmpmeta>
                                                                                                    
                                                                                                    
                                                                                                    
                                                                                                    
                                                                                                    
                                                                                                    
                                                                                                    
                                                                                                    
                                                                                                    
                                                                                                    
                                                                                                    
                                                                                                    
                                                                                                    
                                                                                                    
                                                                                                    
                                                                                                    
                                                                                                    
                                                                                                    
                                                                                                    
                                                                                                    
                           
<?xpacket end="w"?></metadata>
<path class="st0" d="M24.1,62c-2.2,0-4.1-1.8-4.1-4V12.1C20.1,9.8,21.9,8,24.2,8h21.6c0,0,0.1,0,0.1,0c2.2,0,4.1,1.8,4.1,4V58
	c-0.1,2.3-2,4-4.2,4L24.1,62C24.2,62,24.1,62,24.1,62z M24.1,10C23,10,22,10.9,22,12.1v45.9c0,1.1,1,2.1,2.1,2.1c0,0,0,0,0,0h21.6
	c1.2,0,2.2-0.9,2.2-2.1V12.1c0-1.1-1-2.1-2.2-2.1L24.1,10C24.2,10,24.2,10,24.1,10z"/>
<path class="st0" d="M45,53.7H25v-37h20V53.7z M27,51.7h16v-33H27V51.7z"/>
<circle class="st1" cx="35" cy="56.8" r="1.5"/>
<rect x="32" y="12.8" class="st1" width="6" height="1"/>
<polygon class="st1" points="15.1,35.6 16.1,37.5 18.1,38.6 16.1,39.7 15.1,41.6 14,39.7 12.1,38.6 14,37.5 "/>
<polygon class="st1" points="9.9,30.5 10.6,31.8 11.9,32.5 10.6,33.2 9.9,34.5 9.2,33.2 7.9,32.5 9.2,31.8 "/>
<polygon class="st1" points="15.7,26.9 16.1,27.5 16.7,27.9 16.1,28.2 15.7,28.9 15.4,28.2 14.7,27.9 15.4,27.5 "/>
<polygon class="st1" points="54.9,27.6 53.9,29.5 51.9,30.6 53.9,31.6 54.9,33.6 56,31.6 57.9,30.6 56,29.5 "/>
<polygon class="st1" points="60.1,22.5 59.4,23.8 58.1,24.5 59.4,25.2 60.1,26.5 60.8,25.2 62.1,24.5 60.8,23.8 "/>
<polygon class="st1" points="54.3,18.9 53.9,19.5 53.3,19.9 53.9,20.2 54.3,20.9 54.6,20.2 55.3,19.9 54.6,19.5 "/>
</svg>
